<mxfile host="app.diagrams.net" agent="Mozilla/5.0 (Windows NT 10.0; Win64; x64) AppleWebKit/537.36 (KHTML, like Gecko) Chrome/130.0.0.0 Safari/537.36 Edg/130.0.0.0" version="24.8.3">
  <diagram name="Page-1" id="3CngtBJuBpEk-Id8VAVZ">
    <mxGraphModel dx="985" dy="522" grid="1" gridSize="10" guides="1" tooltips="1" connect="1" arrows="1" fold="1" page="1" pageScale="1" pageWidth="1400" pageHeight="850" math="0" shadow="0">
      <root>
        <mxCell id="0" />
        <mxCell id="1" parent="0" />
        <mxCell id="1qtR0L5-jLN4NDF_anPl-4" value="" style="group" vertex="1" connectable="0" parent="1">
          <mxGeometry x="190" y="120" width="80" height="100" as="geometry" />
        </mxCell>
        <mxCell id="1qtR0L5-jLN4NDF_anPl-2" value="" style="image;html=1;image=img/lib/clip_art/computers/Server_128x128.png" vertex="1" parent="1qtR0L5-jLN4NDF_anPl-4">
          <mxGeometry width="80" height="80" as="geometry" />
        </mxCell>
        <mxCell id="1qtR0L5-jLN4NDF_anPl-3" value="Server (1)" style="text;html=1;align=center;verticalAlign=middle;whiteSpace=wrap;rounded=0;container=1;" vertex="1" parent="1qtR0L5-jLN4NDF_anPl-4">
          <mxGeometry x="10" y="70" width="60" height="30" as="geometry" />
        </mxCell>
        <mxCell id="1qtR0L5-jLN4NDF_anPl-5" value="" style="group" vertex="1" connectable="0" parent="1">
          <mxGeometry x="190" y="230" width="80" height="100" as="geometry" />
        </mxCell>
        <mxCell id="1qtR0L5-jLN4NDF_anPl-6" value="" style="image;html=1;image=img/lib/clip_art/computers/Server_128x128.png" vertex="1" parent="1qtR0L5-jLN4NDF_anPl-5">
          <mxGeometry width="80" height="80" as="geometry" />
        </mxCell>
        <mxCell id="1qtR0L5-jLN4NDF_anPl-7" value="Server (2)" style="text;html=1;align=center;verticalAlign=middle;whiteSpace=wrap;rounded=0;container=1;" vertex="1" parent="1qtR0L5-jLN4NDF_anPl-5">
          <mxGeometry x="10" y="70" width="60" height="30" as="geometry" />
        </mxCell>
        <mxCell id="1qtR0L5-jLN4NDF_anPl-8" value="" style="group" vertex="1" connectable="0" parent="1">
          <mxGeometry x="190" y="330" width="80" height="100" as="geometry" />
        </mxCell>
        <mxCell id="1qtR0L5-jLN4NDF_anPl-9" value="" style="image;html=1;image=img/lib/clip_art/computers/Server_128x128.png" vertex="1" parent="1qtR0L5-jLN4NDF_anPl-8">
          <mxGeometry width="80" height="80" as="geometry" />
        </mxCell>
        <mxCell id="1qtR0L5-jLN4NDF_anPl-10" value="Server (3)" style="text;html=1;align=center;verticalAlign=middle;whiteSpace=wrap;rounded=0;container=1;" vertex="1" parent="1qtR0L5-jLN4NDF_anPl-8">
          <mxGeometry x="10" y="70" width="60" height="30" as="geometry" />
        </mxCell>
        <mxCell id="1qtR0L5-jLN4NDF_anPl-17" style="edgeStyle=orthogonalEdgeStyle;rounded=0;orthogonalLoop=1;jettySize=auto;html=1;" edge="1" parent="1" source="1qtR0L5-jLN4NDF_anPl-11" target="1qtR0L5-jLN4NDF_anPl-16">
          <mxGeometry relative="1" as="geometry" />
        </mxCell>
        <mxCell id="1qtR0L5-jLN4NDF_anPl-11" value="" style="image;aspect=fixed;html=1;points=[];align=center;fontSize=12;image=img/lib/azure2/databases/SQL_Data_Warehouses.svg;" vertex="1" parent="1">
          <mxGeometry x="500" y="170" width="94" height="95.47" as="geometry" />
        </mxCell>
        <mxCell id="1qtR0L5-jLN4NDF_anPl-12" style="edgeStyle=orthogonalEdgeStyle;rounded=0;orthogonalLoop=1;jettySize=auto;html=1;entryX=0;entryY=0.628;entryDx=0;entryDy=0;entryPerimeter=0;" edge="1" parent="1" source="1qtR0L5-jLN4NDF_anPl-6" target="1qtR0L5-jLN4NDF_anPl-11">
          <mxGeometry relative="1" as="geometry" />
        </mxCell>
        <mxCell id="1qtR0L5-jLN4NDF_anPl-13" style="edgeStyle=orthogonalEdgeStyle;rounded=0;orthogonalLoop=1;jettySize=auto;html=1;" edge="1" parent="1" source="1qtR0L5-jLN4NDF_anPl-9" target="1qtR0L5-jLN4NDF_anPl-11">
          <mxGeometry relative="1" as="geometry">
            <Array as="points">
              <mxPoint x="547" y="370" />
            </Array>
          </mxGeometry>
        </mxCell>
        <mxCell id="1qtR0L5-jLN4NDF_anPl-14" style="edgeStyle=orthogonalEdgeStyle;rounded=0;orthogonalLoop=1;jettySize=auto;html=1;" edge="1" parent="1" source="1qtR0L5-jLN4NDF_anPl-2" target="1qtR0L5-jLN4NDF_anPl-11">
          <mxGeometry relative="1" as="geometry" />
        </mxCell>
        <mxCell id="1qtR0L5-jLN4NDF_anPl-15" value="Co-Location Warehouse" style="text;html=1;align=center;verticalAlign=middle;whiteSpace=wrap;rounded=0;" vertex="1" parent="1">
          <mxGeometry x="550" y="290" width="60" height="30" as="geometry" />
        </mxCell>
        <mxCell id="1qtR0L5-jLN4NDF_anPl-16" value="Looker" style="sketch=0;html=1;verticalAlign=top;labelPosition=center;verticalLabelPosition=bottom;align=center;spacingTop=-6;fontSize=11;fontStyle=1;fontColor=#999999;shape=image;aspect=fixed;imageAspect=0;image=data:image/svg+xml,PHN2ZyB4bWxucz0iaHR0cDovL3d3dy53My5vcmcvMjAwMC9zdmciIGlkPSJzdmc4OTgwMSIgdmVyc2lvbj0iMS4xIiB2aWV3Qm94PSIwIDAgMjA4LjA1NjU1IDMzNC42MTMxNiIgaGVpZ2h0PSIzMzQuNjEzMTZtbSIgd2lkdGg9IjIwOC4wNTY1NW1tIj4mI3hhOyAgJiN4YTsgIDxkZWZzIGlkPSJkZWZzODk3OTgiLz4mI3hhOyAgPGcgdHJhbnNmb3JtPSJ0cmFuc2xhdGUoLTQuMjQ2MjUyNCwxNS42NzE5MTEpIiBpZD0ibGF5ZXIxIj4mI3hhOyAgICA8cGF0aCBpZD0icGF0aDkxODAyIiB0cmFuc2Zvcm09InNjYWxlKDAuMjY0NTgzMzMpIiBkPSJtIDQwOS4yMjI2Niw0MTkuMDk5NjEgYyAtMzYuNjA4MTEsMCAtNzIuMDc2NjcsNS4wNzUzIC0xMDUuNzUzOTEsMTQuNTMxMjUgbCA0OS4wMzUxNiwxMjAuMDQxMDIgYyAxOC4yNjE3MiwtMy45Mzg5OSAzNy4yMjE5NiwtNi4wNjgzNiA1Ni43MTg3NSwtNi4wNjgzNiAxNDYuOTM1MTQsMCAyNjQuNjc3NzMsMTE3LjczNDc3IDI2NC42Nzc3MywyNjQuNjY5OTIgMCwxNDYuOTM1MTQgLTExNy43NDI1OSwyNjQuNjY5OTYgLTI2NC42Nzc3MywyNjQuNjY5OTYgLTE0Ni45MzUxNiwwIC0yNjQuNjY5OTEsLTExNy43MzQ4MiAtMjY0LjY2OTkzLC0yNjQuNjY5OTYgMCwtOTkuMTg3NjMgNTMuNjg5ODMsLTE4NS4wMDU5NiAxMzMuNzU1ODYsLTIzMC4zNDc2NiBMIDIyOS42MjY5NSw0NjIuNzUgQyAxMDMuMDI0Nyw1MjguMjI0NzQgMTYuMDQ4ODI3LDY2MC41MDUyMyAxNi4wNDg4MjgsODEyLjI3MzQ0IGMgMi4zZS01LDIxNi4zODM3NiAxNzYuNzkwMDYyLDM5My4xNzM4NiAzOTMuMTczODMyLDM5My4xNzM4NiAyMTYuMzgzNzMsMCAzOTMuMTgxNjQsLTE3Ni43OTAxIDM5My4xODE2NCwtMzkzLjE3Mzg2IDNlLTUsLTIxNi4zODM3OCAtMTc2Ljc5Nzg3LC0zOTMuMTczODMgLTM5My4xODE2NCwtMzkzLjE3MzgzIHoiIHN0eWxlPSJjb2xvcjojMDAwMDAwO29wYWNpdHk6MTtmaWxsOiM1OTg2ZjI7ZmlsbC1vcGFjaXR5OjE7c3Ryb2tlLXdpZHRoOjMuNzc5NTM7c3Ryb2tlLWxpbmVqb2luOnJvdW5kOy1pbmtzY2FwZS1zdHJva2U6bm9uZSIvPiYjeGE7ICAgIDxwYXRoIGQ9Im0gMTg5Ljk0MzM2LDg2LjI1IGMgLTk1LjEzMDMzMSwwIC0xNzMuMTc5Njg4LDc4LjA1NTIyIC0xNzMuMTc5Njg4LDE3My4xODU1NSAtNmUtNiw5NS4xMzAzMyA3OC4wNDkzNTMsMTczLjE3OTY4IDE3My4xNzk2ODgsMTczLjE3OTY4IDkuMDE2MTgsMCAxNy44NzU4LC0wLjcwODMyIDI2LjUzMzIsLTIuMDU4NTkgbCAtMzQuODI4MTIsLTg1LjI2NTYyIGMgLTQ0LjE1NzMsLTQuMDg2NjkgLTc3Ljk1NTA4LC00MC41MDcwNSAtNzcuOTU1MDgsLTg1Ljg1NTQ3IDAsLTQ4LjE1MDM5IDM4LjA5OTYyLC04Ni4yNTU4NiA4Ni4yNSwtODYuMjU1ODYgMTMuMTU5NzcsMCAyNS41NTg4OCwyLjg2MjQ2IDM2LjY0NDUzLDcuOTgyNDIgbCA2NC41NTQ2OSwtNjEuOTE5OTIgQyAyNjIuNjA4MzcsOTguNTMzOTEgMjI3LjYyOTI5LDg2LjI1IDE4OS45NDMzNiw4Ni4yNSBaIG0gMTM4Ljg4ODY3LDcwLjE2MjExIC02My40Mjc3Myw2MC44MzU5NCBjIDYuODc2MzgsMTIuNDI2NzggMTAuNzg5MDYsMjYuNzg4MTUgMTAuNzg5MDYsNDIuMTg3NSAwLDIxLjc2NzEyIC03LjgwNDE1LDQxLjQ2NTQgLTIwLjc4NTE2LDU2LjUzMzIgbCAzNC41MjM0NCw4NC41MTk1MyBjIDQ0LjE3Mzg3LC0zMS40ODc1MSA3My4xOTE0MSwtODMuMDc4OTIgNzMuMTkxNDEsLTE0MS4wNTI3MyAwLC0zOC40ODM1NSAtMTIuNzgyLC03NC4xNjUzMiAtMzQuMjkxMDIsLTEwMy4wMjM0NCB6IiB0cmFuc2Zvcm09InNjYWxlKDAuMjY0NTgzMzMpIiBzdHlsZT0iY29sb3I6IzAwMDAwMDtvcGFjaXR5OjE7ZmlsbDojNmY5OGY0O2ZpbGwtb3BhY2l0eToxO3N0cm9rZS13aWR0aDozLjc3OTUzO3N0cm9rZS1saW5lam9pbjpyb3VuZDstaW5rc2NhcGUtc3Ryb2tlOm5vbmUiIGlkPSJwYXRoOTE3OTgiLz4mI3hhOyAgICA8cGF0aCBpZD0icGF0aDg5OTI4IiB0cmFuc2Zvcm09InNjYWxlKDAuMjY0NTgzMzMpIiBkPSJtIDQwNi4xMzY3MiwtNTkuMjMyNDIyIGMgLTU4LjgxNTQ3LDhlLTYgLTEwNy4xMDM1Miw0OC4yODgwNDUgLTEwNy4xMDM1MiwxMDcuMTAzNTE2IDAsMTguNDk0NDUxIDQuNzgxMDEsMzUuOTQ1MDE3IDEzLjE1NjI1LDUxLjE4MzU5NCBsIDQ0LjMxMjUsLTQyLjUwMzkwNyBjIC0wLjQ3NTY3LC0yLjgyMDc3NSAtMC43NzUzOSwtNS43MDc1NjQgLTAuNzc1MzksLTguNjc5Njg3IDAsLTI4LjE3NjM4IDIyLjIzMzc4LC01MC40MTAxNTI1IDUwLjQxMDE2LC01MC40MTAxNTY1IDI4LjE3NjM4LC00ZS02IDUwLjQxMDE1LDIyLjIzMzc3MDUgNTAuNDEwMTYsNTAuNDEwMTU2NSAwLDI4LjE3NjM4MSAtMjIuMjMzNzgsNTAuNDEyMTEzIC01MC40MTAxNiw1MC40MTIxMDkgLTUuMDY4NjksLTEwZS03IC05LjkzNDE3LC0wLjc0NTYzMSAtMTQuNTIzNDQsLTIuMDg5ODQ0IGwgLTQzLjM2MTMzLDQxLjU5MTgwMSBjIDE2LjczMjIzLDEwLjg0Nzk1IDM2LjYxMTIzLDE3LjE4OTQ1IDU3Ljg4NDc3LDE3LjE4OTQ1IDU4LjgxNTQ5LDEwZS02IDEwNy4xMDM1MSwtNDguMjg4MDQgMTA3LjEwMzUxLC0xMDcuMTAzNTE2IDAsLTU4LjgxNTQ4MyAtNDguMjg4MDIsLTEwNy4xMDM1MjMgLTEwNy4xMDM1MSwtMTA3LjEwMzUxNiB6IiBzdHlsZT0iY29sb3I6IzAwMDAwMDtvcGFjaXR5OjE7ZmlsbDojZDZlM2ZiO2ZpbGwtb3BhY2l0eToxO3N0cm9rZS13aWR0aDozLjc3OTUzO3N0cm9rZS1saW5lam9pbjpyb3VuZDstaW5rc2NhcGUtc3Ryb2tlOm5vbmUiLz4mI3hhOyAgPC9nPiYjeGE7PC9zdmc+;" vertex="1" parent="1">
          <mxGeometry x="720" y="181.74" width="44.57" height="72" as="geometry" />
        </mxCell>
        <mxCell id="1qtR0L5-jLN4NDF_anPl-21" value="" style="edgeStyle=orthogonalEdgeStyle;rounded=0;orthogonalLoop=1;jettySize=auto;html=1;" edge="1" parent="1" source="1qtR0L5-jLN4NDF_anPl-20" target="1qtR0L5-jLN4NDF_anPl-16">
          <mxGeometry relative="1" as="geometry" />
        </mxCell>
        <mxCell id="1qtR0L5-jLN4NDF_anPl-20" value="" style="shape=image;verticalLabelPosition=bottom;labelBackgroundColor=default;verticalAlign=top;aspect=fixed;imageAspect=0;image=data:image/jpeg,/9j/4AAQSkZJRgABAQEAAAAAAAD/4QAuRXhpZgAATU0AKgAAAAgAAkAAAAMAAAABAIUAAEABAAEAAAABAAAAAAAAAAD/2wBDAAoHBwkHBgoJCAkLCwoMDxkQDw4ODx4WFxIZJCAmJSMgIyIoLTkwKCo2KyIjMkQyNjs9QEBAJjBGS0U+Sjk/QD3/2wBDAQsLCw8NDx0QEB09KSMpPT09PT09PT09PT09PT09PT09PT09PT09PT09PT09PT09PT09PT09PT09PT09PT09PT3/wAARCAEKAdoDASIAAhEBAxEB/8QAHwAAAQUBAQEBAQEAAAAAAAAAAAECAwQFBgcICQoL/8QAtRAAAgEDAwIEAwUFBAQAAAF9AQIDAAQRBRIhMUEGE1FhByJxFDKBkaEII0KxwRVS0fAkM2JyggkKFhcYGRolJicoKSo0NTY3ODk6Q0RFRkdISUpTVFVWV1hZWmNkZWZnaGlqc3R1dnd4eXqDhIWGh4iJipKTlJWWl5iZmqKjpKWmp6ipqrKztLW2t7i5usLDxMXGx8jJytLT1NXW19jZ2uHi4+Tl5ufo6erx8vP09fb3+Pn6/8QAHwEAAwEBAQEBAQEBAQAAAAAAAAECAwQFBgcICQoL/8QAtREAAgECBAQDBAcFBAQAAQJ3AAECAxEEBSExBhJBUQdhcRMiMoEIFEKRobHBCSMzUvAVYnLRChYkNOEl8RcYGRomJygpKjU2Nzg5OkNERUZHSElKU1RVVldYWVpjZGVmZ2hpanN0dXZ3eHl6goOEhYaHiImKkpOUlZaXmJmaoqOkpaanqKmqsrO0tba3uLm6wsPExcbHyMnK0tPU1dbX2Nna4uPk5ebn6Onq8vP09fb3+Pn6/9oADAMBAAIRAxEAPwD2WiiigAooooAKKKKACiiigAooooAKKKKACiiigAooooAKKKKACiiigAooooAKKKKACiiigAooooAKKKKACiiigAooooAKKKKACiiigAooooAKKKKACiiigAooooAKKKKACiiigAooooAKKKKACiiigAooooAKKKKACiiigAooooAKKKKACiiigAooooAKKKKACiiigAooooAKKKKACiiigAooooAKKKKACiiigAooooAKKKKACiiigAooooAKKKKACiiigAooooAKKKKACiiigAooooAKKKKACiiigAooooAKKKKACiiigAooooAKKKKACiiigAooooAKKKKACiiigAooooAKKKKACiiigAooooAKKKKACiiigAooooAKKKKACiiigAooooAKKKKACiiigAooooAKKKKACiiigAooooAKKKKACiiigAooooAKKKKACiiigAooooAKKKKACiiigAooooAKKKKACiiigAooooAKKKKACiiigAooooAKKKKACiiigAooooAKKKKACiiigAooooAKKKKACiiigAooooAKKKKACiiigAooooAKKKKACiiigAooooAKKKKACiiigAooooAKKKKACiiigAooooAKKKKACiiigAooooAKKKKACiiigAooooAKKKKACiiigAooooAKTmmTTx28ZkmkREHUscCs1vE2kB9pv4c+xqownL4U2S5Jbs1qKht7uC7j8y3mSVPVDkVNUtNOzGncKKKKBhRRRQAUUUUAFFFFABRUMd1BK5SOaN3HUKwJFTUCTTCiiigYUUUUAFFFFABRRRQAUUUUAFFFFABRRRQAUUUUAFFFFABRRRQAUUUUAFFFFABRRRQAUUUUAFFFFABRRRQAUUUUAFFFFABRRRQAUUUUAFFFFABRRRQAVU1HUItMsZLmc/IgzgdSfQVbrkfiBMyWVpED8ryFj+A/+vWuHp+1qqD6mdWfJByRjwW+peMr95JZPLt0PJxlU9gO5rdTwFYCLDT3Bf8AvZA/TFafhq2S10C0VAPmQOSO5POaXWtet9DERuI5H83ONgHGPr9a66mIqyqezo6JaJIwhSgoc1TVsw9O8K3ul60klteYtRyzDq3+yR3+v9a7CuW/4T7T/wDn3ufyX/GrsHimyn0q5vgskcducFXAySenSscTGs1z1Va3U1ocjfJTd2+hudveivPY9b8Sa/K501fLiU4woGB9WPU1La+KtV0bUFttdjLIepKgMo9QRwwrzlXj2du56zy2ok0mm10vqd7RVK+1FLW2WRcOX+5g9azUn1W6BkiyE7YAA/DPWuevj4UZ+zScpdkjlhQlJczdl5m/R+FY1hq0hn+z3a4YnAbGOfQ1W8S+Jv7I221soe6cZyeiD19z7V1YKqsb/C36p9PUyrr2GszoqDXCi58WxQ/bGV2jA3FCq9P93rVnw34jv9V1kw3Lp5JRm2qg4/GvQlgpqLkmmlvZnMsQm0mmrlLwcB/wlV1/uSf+hCu+/nXA+DzjxRdH/Yk/9CFSan4q1HUNTNjoScAkbwoLPjvzwB715kJqEde5rlmHnXi1Ho3dvRI7rrRXn7a54i8PTxnVl82Fzgg7T+RHQ/Wu5srqO+tI7iFt0cihga0hUU7rqdlfCzo2k2mn1Wxh+OZL220H7Vp9zLA8MgLmM4yp4/QkGtPQb/8AtPQrO7Jy8kY3/wC8OD+oNS6tZDUdJurQj/WxlRn17friuY+Gt2X0q6snOJLebO09g3/1wa16HMbeu+JrLw95IvBKzTZ2rGATgdSfbmtWKVJ4UljOUdQyn2PIrzXxDBN4m8W30UJPl2Nu2Mf7POPxY4/Cuo8BakL/AMNQxk5ktiYmz6dR+hA/CgDP8QanfT+N7DSrC7mhjwpmEZ65OT/46P1rta4HwpnVvG+qameY49wUnnGTgf8Ajqmn3fifV9d1aSw8NKqRREhp2AOffJ4A/MmgDu6K8/u73xZ4YC3N7LHe2mRv4zj6nAI9M8itnWfErnweuraU4R3ZQN6hivOCCPXtSA6euM8Uane2njDSba3upYoZdm9FOA3z4OfwqhBrXinxFAh0pViijUK8xCr5j9+v8hUWvpcx+J/DiXsnmXQSPzWwBlt/PSnYD0eiuW8VeLP7JIsdPAm1KQgBQN2zPTI7n2qrqGu6t4d8OrcalLHNqF022OMIAsXGTnHUj+dIDs6K4MW3jdrUXwvY95G4W+FyRjPTGM+2avxeItTl8G3l/PbNa3kC/KzR/K/uAfxFFgOtorz3T9e8S+I7dINN8uIxjE9yygAsT29MDHAGadJrfiLwpeRDWyt3ZyHG9QM/gfX2PWnYVz0Ciuf8R6zfWekRXOi2pufOAIlA3BFPQ7epzmsT7H43W2+2fbUMgG42/wAufyxjPtSGd3RXOeE/Ex1yzlW7QRXVtxLjgEevt0PFYsniTW/Emoy23h1VhtozgzMByPUk9M+g5oA72ivP7jVfE/hSaKTVHS+s3baWUfpnGQfrnNbHiTxcNMsLU2Mfm3d4oaFGB+VT3I/HGPWnYDqKK4QWnjgw/a/tkYkPzfZztz+WMZ9s1r+E/Ez64k1teRiK+t/vqBgMOmcdiDwRSA6SiiigAooooAKKKKACiiigAooooAKKKKACiiigAooooAKKKKACuc8aae97o4liUs9u28qO69D/AI/hXR0hAZSDyKulUdOakuhE4KcXE5jwbrMV1YJYyMFngGFBP319R/Kt68060v8AZ9rt45tn3d4ziuY1jwWWn+06TIInzu8snGD/ALJ7fSqf2fxfGuwNOQO+9T+td0qVOrL2lKaV+j0scynKC5Zxv6F7xTb6RpemMkdrbrdSjbGAoyP9r6CsC6tZbbwVDIQQtxdeYf8Ad2kD+Wa2NO8G3V1dC51qYtzkx7tzP9W7D6fpXU32mW9/p72cqARMu0AD7vpiscXNexdCErt7s6cC/Z4iNeSsl0M/wf5X/CNWvk7eh34/vZ5zWP8AETyfstpnHn7zj/dxz+uKpJoPiPQp3XTHMkLHgqRg/VT0NSWfhTVNXvxda/KwjB5UsCzD0GOFFeS3KUPZ8uu3ke7GFOnWeJdRNXbt116WLaeZ/Y+l+dn/AFA69f8AOMV18O3yU8vG3Axj0qre6fHdW6xLhCn3CB0rMS31W1UxxZKD0IOPpmuD38HiJTcHKMlut1Y4pyjXjo7NN/iJrOP7Tj2ffwM4+tYNzs/4WEPtn3POXGf935fwziumsNJkWcXF2dzjkDOefU1V8TeGxq224t3WO6Ubfm4Dj0+vvXo5InTqVKtVcqqbeXmceP8AehGMNeX8To+1cJ4d8r/hNrvyMeV+827emM0otPFkkP2RndYjwWLr0+o5qDwhCYPFMsOQ3lI6kjocECvcp0VTp1PeT06HBOo5yjo1qReHd39tan5ed3kTbceuRis7w7d6lDLLDpMKvcygZcjlAPrwOSOtdV4c0C/0/XZ7m6iVYnVwCHB6tmqmq+E7+z1I3+hSEFiW8sHaVJ647EH0NeBKnKyavoexktSNOlOlUSTb0vt8x0Pg64u3+0a/qDMc/cV/6ngfhXW2FjBp1olvapsiToNxP864eXSPFGuskN+xjhB5LFQv1wOtdxp9n9hsIrfzXl8tdu+Q5LVrSS1dmvU3xspcqUqifktkWq83jux4V8b6ruwsMsTyKD0JI3KPzyK9IrjPHHhe91q8trnTokd1jKSbnC8ZyOv1Nbo84T4c2Lf2fd6jOMyXcmAx7gdfzJP5Vj2t7/wiOt69ZMSqPEzQD1bqn6Mfyrv9IsRpmk2tmMfuYwpx3Pf9c1y3jfwpeaxfwXemxo7+WUkDOF6dD+p/KmAeDbF7bwPeTqD51ysjKR1OFwP1B/Ol+GPlf2Pdbceb5/z/AE2jH9a6rTLNdO0u2tBjEUYQ+5xz+ua4++8MavoeqyX/AIZdTFLy0BI49sHgj9RQI63WvK/sS++0Y8ryH3Z9MGvNrXzP+FaXm7Oz7Yu3P/Ac/rWvdaf4s8SFbW/WOztMjfjGD+AJJ+nArZ1rw0//AAh66TpSB2RlxvYKW5yST696ALng5VTwnp+0AZjycD3Ncp8QpJYvE+nSWwJnWIGMAZ+becfjmuz8O2U2naBZ2tyoWaKPawByM5rF8R6Df6j4o0y9tYlaC32eYxcDGHyeO/FHUZzOnC48JeKLe41yJX+1LuaZjuKFupz6g8H2Nd14k0a11/ShFcTiHaweKbIwp6fiDmneJdCj1/SXtzhZl+eFz2b/AAPSuZTwrq2p+HU0/UgIZ7Q7rWXzdwYf3Wx6djQIaNP8YeHoj9luEvLaMcJnfwPQHn8Aaml8SjxF4H1VniEVxAgWRQcjk8EfkePamJP44htvsf2aN2A2iclS355x+JFH/COSaB4H1ZrmQPdXCBpNvIXB6Z79Sc0AbHgHyf8AhFLfycbtz+Z/vbv8MUvj3yv+ESufOxncvl/724f0zXLeH7HXrHSodR0F0mjuAfOt3x94EjIz6gdsGrb6D4i8UXsR10i2s4jkohHPrgDufU9KBkD+Ib7TPC2i6fp/F3dRn5zyVXcQuAe59fatOHwp4i8oSv4ilSc8lMsyg/n/AEq34r8KPqdvaS6WyxXFmu2Jc4BUYwAexGKobvGuowrZSxRWqMNslzxux+B6/QCgRi+H/tBHibDq9x9mfcydGOTkj6810vw38r/hG32Y8zz234654x+mKZ4Q8MXmh6pfm5RTbSLsjYsCWAPcDpxVObw1rXhzUZLrw2yy28h5hYjj2IPUe45oA7icxKgNwUC5GC+MZ7de+a868Vw3M/xAt4oJxBK6xiCVuinn+uatXGkeKPFEscOrbLOyVtzKuP5AnJ+vArZ8R+EY9T022SyfyrqzULC7HO4DsT17Zz60bAUv+Ed8W/8AQwL+Z/wqTw54Wv8ATtfk1G8voLgsrLLszkscdappceOooPsv2aN2+6JjsLfnnH4kVreE/DM+jGa7v7gy3lx98BiVHfn1J9aBnTUUUUgCiiigAooooAKKKKACiiigAooooAKKKKACiiigAooooAKKKKACiiigAooooAKKKKACiiigArlfFmjX11LFe2EkrPFj90GPB7Mo9a6qirpVHTkpIicFNWZwbeJfEEsP2ZbFxMRtMghbd/hWr4S0GbTFku7wYuJhjaTkqOvPuTXTAUfpW88TeLjCKSe9jKNG0lKTvYWiiiuU6AooooAKKKKACiiigAooooAKKKKACiiigAooooAKyvE1rNeeHL23tozJLJHhUB6nNatFAGJ4QsrjT/Dltb3cRimUtuQnOMsT2rboooAKKKKACiiigAooooAKKKKACiiigAooooAKKKKACiiigAooooAKKKKACiiigAooooAKKKKACiiigAooooAKKKKACiiigAooooAKKoX+sWGmFReXKRM/3QeSfyqp/wAJbon/AD/x/wDfJ/wq40pyV0m16EOpBOzaNqisX/hLdE/5/wCP8j/hR/wluif8/wDH+R/wqvYVf5X9zF7aHdfebVJWC3jXQI2KtqUYI6/K3+FaWn6nZ6rb+fYXCTx5wWQ9D/SplSnFXkmvkNVISdky7RRRUFhRRRQAUU1mCKWYgAdSax38WaIjlW1O1yDgjzBSbSJc4x3ZtUVlWviTSL2dYLfULeSVvuorjJrVoTT2GmmrphRRRTGFFFFACUZrN1DV1spRGIy7YyeelVf+Ej/6Yf8Aj1cFXMsNTm4SlZo2jh6kldLQ3KWsI+Ih/wA8P/HqtaPrVvrNuzwHDodroTyp/wA960w+Mo4htU3ewToVILma0NOiiiusxCiiigAooooAKKKKACiiigAooooAKKKKACiiigAooooAKKKKACiiigAooooAKKKKACiiigBM4z6V5Hq/j3WG1eY2lwIII5CqRBAcgHHJPU8V62e+a8I1OyZL24ePLJ5rkj05NROlVnFypq9tzvy6ph41eWvbXRXPUPC3jO31yFYrgLBedCmflf8A3f8ACuoGa8HsOIMjIIbIIOMV3Ph7xu9uBb6szSRgYWYDLD6+v1rnp4jpI7MZlTjedHVdjviQoyelYVz4mgkklgsHEjx8M4+6D6D1Ncf4h8XXGrs0FvugtOmAfmf6+3tUfhvAjuOgAIz2xXHmWMlGi/ZPXuTSyxwp+1rfd/mdrpWqXEt0IZ23h84OOlbtcHpGsRy+JLW2t8OpLbn7dD0rvavKvbew/fb9LnlVqtKpN+yd0uwUUUV6hmea+POfEQyc4hXHt1rnFBboCfoM10fjr/kYz/1xX+tWfh/t+3XhYAgRA8j3NfS0qvscGp2vZHhVIe0xDhe2pyexv7rflRsf+63/AHzXpSeJYPNQzafcQ2sj+Wlw6AKT0HHUA1Zm16wi1eLTlXzLiRtp2gYTvyfX2rB5lP8A59/iarBR/mPGb1T9qfg9u1d58Ks41Ic4ynH51meNFA8T3QAAGF4A/wBmtz4a9L/6p/I1wYjNvrEXS5bX6+hz4SXLiuTsd3RRRXAfQBRSVV1C/i06yluZjhI1JP8AhQKUlFNvocv481z7NbDToG/ezDMpB6L6fjXmN3EFcOo+U9cdjWpf3kuoXstzMcySNu+g7D8OlT6Ro763qCWaj5G+aRv7qjv/AErinJybsfMVK8sRX066JFnwlpgjiN/Ivzt8sWR0Hr+NenaTeC7tRk/vE+Vq5doPsn7jaFEfygDtirWnXZs7pXP3G4Ye1fO4bMZQxblPRPRo+4hgY08MoR3WvqdbRTVYOoYHII6inV9cnfVHnhRRRTA5nXf+Qkf90f1rOA3MAoJJ6ACtHXf+Qi3+6Ki0cZ1OL8f5V8LiKftcdKDdryse1TlyUFLsisIJD0ifP+6a5Cz1G50nUmuLZirK5yp6MM9DXsWOK8Yuv+Pyb/ro386+wyfh9KUrVH0PPrZ08PGzgmnoeqaLrUGtWQmh+V14kjPVD/nvWnzXE/Dr7t//ALyf1rtvxrvr0vY1HTvexxU6qqx50rX6C0UUVkWRu6RIXdgqqMkntXIv4ue+1WSDT2220a/6wjlznt7Vl+MvEE93eS6dBujt4m2vg8yEf09qpeE7OW71CZYguViycnHeuTMKWK9hJ04vbc78J9UUXKpNc3RHUf2tej/luf8AvkUn9r33/PY/kKl/sO8/up/31VW6tZrSQJKAGIzwa+RqPHUlzTckjsj7CTskmaOm6rcvdpFMwdXPp0rSv9Ws9MCG8uEi3naoPUn6Vwl74ji0e6RYgst0DwueF+v+Fc7cX1xqF+Li6lMkjMMk9ueg9BXvZVXqui3Ubbvpc+dzbHU6FVQpJN9fI9qByMjoaWmx/wCrX6CnV7ZstgooooGFFFFABRRRQAUUUUAFFFFABRRRQAUUUUAFFFFACGvGbz/j8n/66N/OvZjXjN5/x/XH/XRv517GT/FP0PNzHaJraZ4UOr6E15ZsFuVlYGM9HHH5GsKaGS2maGZGjkU4ZWHIr0fwD/yAG/67N/StDWfDtprcYFwpSVfuyp94f4/jXi4/DKVefLo7s+jyrNZ06UY1dVbfqjy+w0+51O5EFnE0kh6+i+5PYVp+ItHbw/bWtsJmd7gFpiOASOgHtzXo2m6Va6TbCC0iCL1LdSx9Se9cb8SP+Pmx/wBxv5iuR4aMYe9qzkz3M6lahKMNI/izF8H/API02ePVv/QTXrVeS+D/APkaLP6t/wCgmvWq3o/CeJlP8J+oUUUVseqea+O/+RiP/XFf61Y+H7iO9vnbhVhBJ/HmqHj+5ji8TFXJB8lTwPrU3gHVLeG/vC5bHlDGB717tacYZdzT0SSPHgnLGWW92bGu3UV0lrqUN8tzaCZCtmRjcc4+ue+DWhrcaJrWisihS9wxbA5Py96VBoMd59pS0QTZ3bxH39frVmXUtNmljkkUu8R3IxTlT7V8+80witaa0ueqsHWd21ucD41/5Gm5+i/+g1u/Db/l/wDqn9a5/wAVzJdeIbiWMkoQvUe1dJ8O7WaK3u53QiKQqEYj72M9PaualNTqXi7o8uGBxFLFOrODUbvU7aiiiuw9cTFedePNb+0XQ06Bv3cPMhHduwr0WvFvFNvdaV4guoZiCsjmSNiPvKef06fhWtLDTxL5INJnnZk5+ytHruVegzXp3gvRP7M0wTzLi4uAGbPVR2FeWWM0zTK/y4Q55Gcmul/4S7Wh/wAvf/kNa6qeS1ou7aPMwThQm5z1fQ7fXrLKi6jHI4fH86xO1YTeLNXkUq13lSMEFBVM6xfbv9dx9BXy+d8PVaU1Wi1Z7+p9plGLji70ouzW1+x6Tod75kXkOfmT7v0rX7muA8Ftf3+qGZ5SbaFSG4HLHoP613+K7MvVSNBRqO7RljaSpVnFC0UUV2nIcxrvOonP90VHo3/ISi/H+VV/E2rWNpq5iuLhUfYp2kGqmleI9Ji1CN3vUCgHnB9K+PnRqfX+bldubsej9ZorD8rkr2O9PQ14vc/8fc//AF0b+dem/wDCX6J/z/J/3yf8K8tuLuBruZllBVnYg/jX6Rk7TlL5HzGPqQmo8rudx8OvuX/+8n9a7auG+G8qSJqGxg2GTOPxrua48w/3iXy/I7MH/BQUUUVxnUeQ6/8A8jBf/wDXZq3Ph7/yGLn/AK4/+zVzXiO+SPxHqClWyJ2Bq34T8SW+kX000sUrB49oC49a+kxFlgvkjwITUMRzSdkmet964D4iaxPp9xFDarh3iyZD/CM9ver/APwsex/59Ln/AMd/xrlfFGtw69fxTwxvGqR7MPj1z2r5DEKnVhyvU7cRmMIQbpS1OVgJe5VmJLE8knOa04/9an+8Kjg057i8jS1Uu7dE9fpUiqyTqrKQysMqRgis0rHgzfPJSPb4v9Sn+6KfTIv9Un0FPrvPr47BRRRQMKKKKACiiigAooooAKKKKACiiigAooooAKKKKAE61x938P4ri8llivGjWRi20pnGa7GitaVapRbcHa5lUowqJKSuZWgaMND09rUTGbLl9xGOv/6q1aKKzlJyblLdlxiopJBXP+I/DA1+SB/tJhMQIwEznNdBRUtJqzFUpxqRcZK6OW0TwVDpF+t21y80iA7QVwATxXU0UUJJKyFSpQpLlgrIKKKKZoeX/EbSr2XX47qG1llheELujUtggng46dapeELG7iuroyWs6AxgAtGR3r1zjrQB9K2xNeWIwbwjVk1a5z0sOqeIVdPXscZ9nl/55Sf98mj7PL/zyk/75Ndpj2FGPYV8v/q/D+f8D2Pr8uxwNp4Uk1XWpJ7tWjtEI4IwZDjp9Peu6iiWGNY41CoowqgYAFPxRXt4egqEFBdOpz18TOu1zbLoLRRRW5zhXMeNvDba7pYa2UG8gO6P/aHdf6/UV09FXTqSpzU47oicFOLi+p45F4e1KGIJ/Z9zkdf3Z5NO/sXUh/y4XP8A37New0V6f9r1P5UcH9nQ7s8e/sbUv+gfdf8Afs0+Lw/qs7iNbC4DE4BZNoH1J7V67RiscRmEq9N05xVmdGFw31aqqtOTujN0TSY9H02O2TBYDLsP4mPU1p0nNLXnJJKyOucnOTlJ6sKKKKYjyH4kAjxUSQcGFMfrXM2v+vWvdNQ0TTtVKNf2kU7J90sORVNfB2hK25dMhB9ea55UW5NpnlV8BOpJtPc8nrL/AIj9a9w/4RTRv+gfD+VM/wCEO0H/AKBkH5GvSy7ELCOTkr37HPTyupG92jl/hSP3WpHBxvQZ/A16HVWx0610yDybKBII852oMDNWqzxFX21Vzta569Cm6UFFvYKKKKxNjxHxdbzW3im/82NlEkpdSRwwPcVnWX+sb/dr3uSGOXHmRq+P7wzTfsluOkEX/fAr0amP58P7G3S1zy6uW+0bfNa54jg+hpMH0Ne4fZYP+eKf98ij7LB/zxT/AL5FeN7DzOf+x/7/AOB5X4QtpZvEVo0cbMsbbnbHCjFd1rPhOy1i4S4JMEysNzoPvD0P+NbaRJHnYgX6DFPrWMFFWep3YfBQpU+SWutwUYUD0GKWiirO4KKKKACiiigAooooAKKKKACiiigAooooAKKKKACiiigAooooAKKKKACiiigAooooAKKKKACiiigAooooAKKKKACiiigAooooAKKKKACiiigAooooAKKKKACiiigAooooAKKKKACiiigAooooAKKKKACiiigAooooAKKKKACiiigAooooAKKKKACiiigAooooAKKKKACiiigAooooAKKKKACiiigAooooAKKKKACiiigAooooAKKKKACiiigAooooAKKKKACiiigAooooAKKKKACiiigAooooAKKKKACiiigAooooAKKKKACiiigAooooAKKKKACiiigAooooAKKKKACiiigAooooAKKKKACiiigAooooAKKKKACiiigAooooAKKKKACiiigAooooAKKKKACiiigAooooAKKKKACiiigAooooAKKKKACiiigAooooAKKKKACiiigAooooAKKKKACiiigAooooAKKKKACiiigAooooAKKKKACiiigAooooAKKKKACiiigAooooAKKKKACiiigAooooAKKKKACiiigAooooAKKKKACiiigAooooAKKKKACiiigAooooAKKKKACiiigAooooAKKKKACiiigAooooAKKKKACiiigAooooAKKKKACiiigAooooAKKKKACilooASilooASilooASilooASilooASilooASilooASilooASilooASilooASilooASilooASilooASilooASilooASilooASilooASilooASilooASilooASilooASilooASilooASilooASilooASilooASilooASilooASilooASilooA//2Q==;" vertex="1" parent="1">
          <mxGeometry x="683.48" y="70" width="117.61" height="66" as="geometry" />
        </mxCell>
        <mxCell id="1qtR0L5-jLN4NDF_anPl-22" value="Business User" style="text;html=1;align=center;verticalAlign=middle;whiteSpace=wrap;rounded=0;" vertex="1" parent="1">
          <mxGeometry x="712.29" y="40" width="60" height="30" as="geometry" />
        </mxCell>
        <mxCell id="1qtR0L5-jLN4NDF_anPl-23" value="Ingest?" style="text;html=1;align=center;verticalAlign=middle;whiteSpace=wrap;rounded=0;" vertex="1" parent="1">
          <mxGeometry x="623.48" y="190" width="60" height="30" as="geometry" />
        </mxCell>
        <mxCell id="1qtR0L5-jLN4NDF_anPl-24" value="searching level metadata?" style="text;html=1;align=center;verticalAlign=middle;whiteSpace=wrap;rounded=0;" vertex="1" parent="1">
          <mxGeometry x="741.09" y="140" width="178.91" height="30" as="geometry" />
        </mxCell>
        <mxCell id="1qtR0L5-jLN4NDF_anPl-26" value="" style="swimlane;startSize=0;" vertex="1" parent="1">
          <mxGeometry x="447" y="20" width="493" height="410" as="geometry" />
        </mxCell>
        <mxCell id="1qtR0L5-jLN4NDF_anPl-29" value="" style="sketch=0;outlineConnect=0;fontColor=#232F3E;gradientColor=none;fillColor=#8C4FFF;strokeColor=none;dashed=0;verticalLabelPosition=bottom;verticalAlign=top;align=center;html=1;fontSize=12;fontStyle=0;aspect=fixed;pointerEvents=1;shape=mxgraph.aws4.vpn_connection;" vertex="1" parent="1qtR0L5-jLN4NDF_anPl-26">
          <mxGeometry x="163" y="191" width="25.13" height="28" as="geometry" />
        </mxCell>
        <mxCell id="1qtR0L5-jLN4NDF_anPl-30" value="VPC" style="text;html=1;align=center;verticalAlign=middle;whiteSpace=wrap;rounded=0;" vertex="1" parent="1qtR0L5-jLN4NDF_anPl-26">
          <mxGeometry width="60" height="30" as="geometry" />
        </mxCell>
        <mxCell id="1qtR0L5-jLN4NDF_anPl-31" value="10.0.0.0/16&lt;span style=&quot;white-space: pre;&quot;&gt;&#x9;&lt;/span&gt;" style="text;html=1;align=center;verticalAlign=middle;whiteSpace=wrap;rounded=0;" vertex="1" parent="1qtR0L5-jLN4NDF_anPl-26">
          <mxGeometry x="13" y="10" width="60" height="30" as="geometry" />
        </mxCell>
      </root>
    </mxGraphModel>
  </diagram>
</mxfile>
